<svg width="20" height="22" viewBox="0 0 20 22" fill="none" xmlns="http://www.w3.org/2000/svg">
<path d="M0 20.57V8.14079C0 7.77472 0.0819047 7.42819 0.245714 7.1012C0.409524 6.77422 0.635238 6.50491 0.922857 6.29327L8.61572 0.461879C9.01857 0.15396 9.47857 0 9.99571 0C10.5129 0 10.9757 0.15396 11.3843 0.461879L19.0771 6.29184C19.3657 6.50348 19.5914 6.77326 19.7543 7.1012C19.9181 7.42819 20 7.77472 20 8.14079V20.57C20 20.9533 19.8576 21.2874 19.5729 21.5724C19.2881 21.8575 18.9543 22 18.5714 22H13.7371C13.4095 22 13.1352 21.8894 12.9143 21.6682C12.6933 21.4461 12.5829 21.1716 12.5829 20.8446V14.0251C12.5829 13.6981 12.4724 13.424 12.2514 13.2029C12.0295 12.9807 11.7552 12.8697 11.4286 12.8697H8.57143C8.24476 12.8697 7.97095 12.9807 7.75 13.2029C7.5281 13.424 7.41714 13.6981 7.41714 14.0251V20.846C7.41714 21.173 7.30667 21.4471 7.08571 21.6682C6.86476 21.8894 6.59095 22 6.26429 22H1.42857C1.04571 22 0.711904 21.8575 0.427143 21.5724C0.142381 21.2874 0 20.9533 0 20.57Z" fill="#7C6AF8"/>
</svg>
