<svg width="31" height="31" viewBox="0 0 31 31" fill="none" xmlns="http://www.w3.org/2000/svg">
<path d="M30.0832 25.7082H25.7082V30.0832H22.7915V25.7082H18.4165V22.7915H22.7915V18.4165H25.7082V22.7915H30.0832V25.7082ZM9.6665 0.916504C8.06234 0.916504 6.74984 2.229 6.74984 3.83317V5.2915C3.5415 5.2915 0.916504 7.9165 0.916504 11.1248V27.1665C0.916504 28.7707 2.229 30.0832 3.83317 30.0832H17.6873C16.9582 29.2082 16.3748 28.1873 15.9373 27.1665H3.83317V21.3332H6.74984V24.2498H8.20817V21.3332H15.9373C16.0832 20.8957 16.3748 20.3123 16.6665 19.8748H3.83317V11.1248C3.83317 9.52067 5.14567 8.20817 6.74984 8.20817H18.4165C20.0207 8.20817 21.3332 9.52067 21.3332 11.1248V15.9373C22.2082 15.6457 23.229 15.4998 24.2498 15.4998V11.1248C24.2498 7.9165 21.6248 5.2915 18.4165 5.2915V3.83317C18.4165 2.229 17.104 0.916504 15.4998 0.916504H9.6665ZM9.6665 3.83317H15.4998V5.2915H9.6665V3.83317ZM12.5832 11.1248L9.6665 14.0415L12.5832 16.9582L15.4998 14.0415L12.5832 11.1248Z" fill="#E8E5FF"/>
</svg>
