<svg width="25" height="31" viewBox="0 0 25 31" fill="none" xmlns="http://www.w3.org/2000/svg">
<path d="M18.5 4.625V3.08333C18.5 2.26558 18.1751 1.48132 17.5969 0.903087C17.0187 0.32485 16.2344 0 15.4167 0H9.25C8.43225 0 7.64799 0.32485 7.06975 0.903087C6.49152 1.48132 6.16667 2.26558 6.16667 3.08333V4.625C4.53116 4.625 2.96265 5.2747 1.80617 6.43117C0.6497 7.58765 0 9.15616 0 10.7917V27.75C0 28.5678 0.32485 29.352 0.903087 29.9302C1.48132 30.5085 2.26558 30.8333 3.08333 30.8333H21.5833C22.4011 30.8333 23.1853 30.5085 23.7636 29.9302C24.3418 29.352 24.6667 28.5678 24.6667 27.75V10.7917C24.6667 9.15616 24.017 7.58765 22.8605 6.43117C21.704 5.2747 20.1355 4.625 18.5 4.625ZM9.25 3.08333H15.4167V4.625H9.25V3.08333ZM12.3333 10.7917L15.4167 13.875L12.3333 16.9583L9.25 13.875L12.3333 10.7917ZM21.5833 27.75H3.08333V21.5833H6.16667V24.6667H7.70833V21.5833H21.5833V27.75ZM21.5833 20.0417H3.08333V10.7917C3.08333 9.97392 3.40818 9.18966 3.98642 8.61142C4.56466 8.03318 5.34892 7.70833 6.16667 7.70833H18.5C19.3178 7.70833 20.102 8.03318 20.6802 8.61142C21.2585 9.18966 21.5833 9.97392 21.5833 10.7917V20.0417Z" fill="#7C6AF8"/>
</svg>
