<svg width="21" height="23" viewBox="0 0 21 23" fill="none" xmlns="http://www.w3.org/2000/svg">
<path d="M10.1538 0V1.84615C4.57385 1.84615 0 6.42 0 12C0 17.58 4.57385 22.1538 10.1538 22.1538C15.7338 22.1538 20.3077 17.58 20.3077 12C20.3077 9.27969 19.2831 6.82154 17.4517 4.99015L16.1538 6.28892C17.6465 7.77969 18.4615 9.73477 18.4615 12C18.4615 16.5738 14.7277 20.3077 10.1538 20.3077C5.58 20.3077 1.84615 16.5738 1.84615 12C1.84615 7.42615 5.58 3.69231 10.1538 3.69231V5.53846L14.7692 2.76923L10.1538 0ZM12.0868 6.05815L9.77908 10.6735C9.48796 10.7522 9.23103 10.9249 9.04837 11.1649C8.8657 11.4048 8.76756 11.6984 8.76923 12C8.76923 12.3672 8.91511 12.7194 9.17477 12.9791C9.43444 13.2387 9.78662 13.3846 10.1538 13.3846H10.212L13.1825 16.356L14.5098 15.0286L11.5385 12.0582V12C11.5385 11.8182 11.4868 11.64 11.4231 11.4803L13.7594 6.86492L12.0868 6.05723V6.05815Z" fill="black"/>
</svg>
