<svg width="18" height="23" viewBox="0 0 18 23" fill="none" xmlns="http://www.w3.org/2000/svg">
<path d="M5.5 4H3C2.46957 4 1.96086 4.21071 1.58579 4.58579C1.21071 4.96086 1 5.46957 1 6V20C1 20.5304 1.21071 21.0391 1.58579 21.4142C1.96086 21.7893 2.46957 22 3 22H15C15.5304 22 16.0391 21.7893 16.4142 21.4142C16.7893 21.0391 17 20.5304 17 20V6C17 5.46957 16.7893 4.96086 16.4142 4.58579C16.0391 4.21071 15.5304 4 15 4H12.5" stroke="black" stroke-width="1.5" stroke-linecap="round"/>
<path d="M5 6.4V4.5C5 4.36739 5.05268 4.24021 5.14645 4.14645C5.24021 4.05268 5.36739 4 5.5 4C5.776 4 6.004 3.776 6.052 3.504C6.2 2.652 6.774 1 9 1C11.226 1 11.8 2.652 11.948 3.504C11.996 3.776 12.224 4 12.5 4C12.6326 4 12.7598 4.05268 12.8536 4.14645C12.9473 4.24021 13 4.36739 13 4.5V6.4C13 6.55913 12.9368 6.71174 12.8243 6.82426C12.7117 6.93679 12.5591 7 12.4 7H5.6C5.44087 7 5.28826 6.93679 5.17574 6.82426C5.06321 6.71174 5 6.55913 5 6.4Z" stroke="black" stroke-width="1.5" stroke-linecap="round"/>
</svg>
