<svg width="70" height="70" viewBox="0 0 70 70" fill="none" xmlns="http://www.w3.org/2000/svg">
<circle cx="35" cy="35" r="35" fill="#E8E5FF"/>
<path d="M40.5 24.625V23.0833C40.5 22.2656 40.1751 21.4813 39.5969 20.9031C39.0187 20.3249 38.2344 20 37.4167 20H31.25C30.4322 20 29.648 20.3249 29.0698 20.9031C28.4915 21.4813 28.1667 22.2656 28.1667 23.0833V24.625C26.5312 24.625 24.9626 25.2747 23.8062 26.4312C22.6497 27.5876 22 29.1562 22 30.7917V47.75C22 48.5678 22.3249 49.352 22.9031 49.9302C23.4813 50.5085 24.2656 50.8333 25.0833 50.8333H43.5833C44.4011 50.8333 45.1853 50.5085 45.7636 49.9302C46.3418 49.352 46.6667 48.5678 46.6667 47.75V30.7917C46.6667 29.1562 46.017 27.5876 44.8605 26.4312C43.704 25.2747 42.1355 24.625 40.5 24.625ZM31.25 23.0833H37.4167V24.625H31.25V23.0833ZM34.3333 30.7917L37.4167 33.875L34.3333 36.9583L31.25 33.875L34.3333 30.7917ZM43.5833 47.75H25.0833V41.5833H28.1667V44.6667H29.7083V41.5833H43.5833V47.75ZM43.5833 40.0417H25.0833V30.7917C25.0833 29.9739 25.4082 29.1897 25.9864 28.6114C26.5647 28.0332 27.3489 27.7083 28.1667 27.7083H40.5C41.3178 27.7083 42.102 28.0332 42.6802 28.6114C43.2585 29.1897 43.5833 29.9739 43.5833 30.7917V40.0417Z" fill="#7C6AF8"/>
</svg>
