<svg width="20" height="19" viewBox="0 0 20 19" fill="none" xmlns="http://www.w3.org/2000/svg">
<path d="M10 8.61678C8.81333 8.61678 7.80238 8.19695 6.96714 7.35729C6.1319 6.51764 5.71429 5.50134 5.71429 4.30839C5.71429 3.11544 6.1319 2.09914 6.96714 1.25949C7.80238 0.419828 8.81333 0 10 0C11.1867 0 12.1976 0.419828 13.0329 1.25949C13.8681 2.09914 14.2857 3.11544 14.2857 4.30839C14.2857 5.50134 13.8681 6.51764 13.0329 7.35729C12.1976 8.19695 11.1867 8.61678 10 8.61678ZM0 17.5093V16.6361C0 16.0435 0.171429 15.4891 0.514286 14.9731C0.858095 14.4561 1.32 14.0549 1.9 13.7696C3.24857 13.1195 4.59809 12.6322 5.94857 12.3076C7.29809 11.9821 8.64857 11.8193 10 11.8193C11.3514 11.8193 12.7024 11.9821 14.0529 12.3076C15.4033 12.6332 16.7519 13.1205 18.0986 13.7696C18.6795 14.0549 19.1414 14.4561 19.4843 14.9731C19.8281 15.4891 20 16.0435 20 16.6361V17.5093C20 17.9306 19.8576 18.2848 19.5729 18.572C19.2881 18.8573 18.9357 19 18.5157 19H1.48571C1.06571 19 0.713334 18.8569 0.428572 18.5706C0.14381 18.2843 0.000952381 17.9306 0 17.5093Z" fill="#7C6AF8"/>
</svg>
